<?xml version="1.0" encoding="UTF-8" standalone="no"?>
<svg
   xmlns:dc="http://purl.org/dc/elements/1.1/"
   xmlns:cc="http://creativecommons.org/ns#"
   xmlns:rdf="http://www.w3.org/1999/02/22-rdf-syntax-ns#"
   xmlns:svg="http://www.w3.org/2000/svg"
   xmlns="http://www.w3.org/2000/svg"
   xmlns:sodipodi="http://sodipodi.sourceforge.net/DTD/sodipodi-0.dtd"
   xmlns:inkscape="http://www.inkscape.org/namespaces/inkscape"
   version="1.1"
   id="Capa_1"
   x="0px"
   y="0px"
   viewBox="0 0 418.089 418.089"
   style="enable-background:new 0 0 418.089 418.089;"
   xml:space="preserve"
   sodipodi:docname="XMLID_219_.svg"
   inkscape:version="0.92.3 (2405546, 2018-03-11)"><metadata
     id="metadata868"><rdf:RDF><cc:Work
         rdf:about=""><dc:format>image/svg+xml</dc:format><dc:type
           rdf:resource="http://purl.org/dc/dcmitype/StillImage" /></cc:Work></rdf:RDF></metadata><defs
     id="defs866" /><sodipodi:namedview
     pagecolor="#ffffff"
     bordercolor="#666666"
     borderopacity="1"
     objecttolerance="10"
     gridtolerance="10"
     guidetolerance="10"
     inkscape:pageopacity="0"
     inkscape:pageshadow="2"
     inkscape:window-width="1918"
     inkscape:window-height="2088"
     id="namedview864"
     showgrid="false"
     inkscape:zoom="1.5965711"
     inkscape:cx="304.86211"
     inkscape:cy="82.542224"
     inkscape:window-x="1145"
     inkscape:window-y="0"
     inkscape:window-maximized="0"
     inkscape:current-layer="Capa_1" /><path
     d="M 16.865234 96.089844 C 7.5652348 96.089844 2.3684758e-015 103.65508 0 112.95508 L 0 305.13477 C 0 314.43377 7.5652348 322 16.865234 322 L 401.22461 322 C 410.52361 322 418.08984 314.43477 418.08984 305.13477 L 418.08984 112.95508 C 418.08984 103.65508 410.52361 96.089844 401.22461 96.089844 L 16.865234 96.089844 z M 16.865234 110.08984 L 401.22461 110.08984 C 402.77761 110.08984 404.08984 111.40114 404.08984 112.95312 L 404.08984 305.13477 C 404.08984 306.68777 402.77761 307.99805 401.22461 307.99805 L 16.865234 307.99805 C 15.312234 307.99805 14 306.68677 14 305.13477 L 14 112.95312 C 14 111.40014 15.312234 110.08984 16.865234 110.08984 z M 102.23828 244.84375 C 98.372282 244.84375 95.238281 247.97775 95.238281 251.84375 L 95.238281 278.7832 C 95.238281 282.6492 98.372282 285.7832 102.23828 285.7832 L 315.84961 285.7832 C 319.71561 285.7832 322.84961 282.6492 322.84961 278.7832 L 322.84961 251.84375 C 322.84961 247.97775 319.71561 244.84375 315.84961 244.84375 L 102.23828 244.84375 z M 109.23828 258.8457 L 308.84961 258.8457 L 308.84961 271.78516 L 109.23828 271.78516 L 109.23828 258.8457 z "
     id="XMLID_219_"
     style="fill:#ff9c00;fill-opacity:1" /><path
     d="M 46.820312 129.52734 C 42.954313 129.52734 39.820312 132.66134 39.820312 136.52734 L 39.820312 163.4668 C 39.820312 167.3338 42.954312 170.4668 46.820312 170.4668 L 73.759766 170.4668 C 77.625766 170.4668 80.759766 167.3328 80.759766 163.4668 L 80.759766 136.52734 C 80.759766 132.66134 77.625766 129.52734 73.759766 129.52734 L 46.820312 129.52734 z M 102.23828 129.52734 C 98.372281 129.52734 95.238281 132.66134 95.238281 136.52734 L 95.238281 163.4668 C 95.238281 167.3338 98.372281 170.4668 102.23828 170.4668 L 129.17773 170.4668 C 133.04373 170.4668 136.17773 167.3328 136.17773 163.4668 L 136.17773 136.52734 C 136.17773 132.66134 133.04373 129.52734 129.17773 129.52734 L 102.23828 129.52734 z M 156.10742 129.52734 C 152.24142 129.52734 149.10742 132.66134 149.10742 136.52734 L 149.10742 163.4668 C 149.10742 167.3338 152.24242 170.4668 156.10742 170.4668 L 183.04883 170.4668 C 186.91483 170.4668 190.04883 167.3328 190.04883 163.4668 L 190.04883 136.52734 C 190.04883 132.66134 186.91483 129.52734 183.04883 129.52734 L 156.10742 129.52734 z M 209.97656 129.52734 C 206.11056 129.52734 202.97656 132.66134 202.97656 136.52734 L 202.97656 163.4668 C 202.97656 167.3338 206.11056 170.4668 209.97656 170.4668 L 236.91797 170.4668 C 240.78397 170.4668 243.91797 167.3328 243.91797 163.4668 L 243.91797 136.52734 C 243.91797 132.66134 240.78397 129.52734 236.91797 129.52734 L 209.97656 129.52734 z M 263.84766 129.52734 C 259.98166 129.52734 256.84766 132.66134 256.84766 136.52734 L 256.84766 163.4668 C 256.84766 167.3338 259.98066 170.4668 263.84766 170.4668 L 290.78711 170.4668 C 294.65311 170.4668 297.78711 167.3328 297.78711 163.4668 L 297.78711 136.52734 C 297.78711 132.66134 294.65311 129.52734 290.78711 129.52734 L 263.84766 129.52734 z M 53.820312 143.52734 L 66.759766 143.52734 L 66.759766 156.4668 L 53.820312 156.4668 L 53.820312 143.52734 z M 109.23828 143.52734 L 122.17773 143.52734 L 122.17773 156.4668 L 109.23828 156.4668 L 109.23828 143.52734 z M 163.10742 143.52734 L 176.04883 143.52734 L 176.04883 156.4668 L 163.10742 156.4668 L 163.10742 143.52734 z M 216.97656 143.52734 L 229.91797 143.52734 L 229.91797 156.4668 L 216.97656 156.4668 L 216.97656 143.52734 z M 270.84766 143.52734 L 283.78711 143.52734 L 283.78711 156.4668 L 270.84766 156.4668 L 270.84766 143.52734 z M 127.30273 187.18555 C 123.43673 187.18555 120.30273 190.31955 120.30273 194.18555 L 120.30273 221.12695 C 120.30273 224.99295 123.43673 228.12695 127.30273 228.12695 L 154.24219 228.12695 C 158.10819 228.12695 161.24219 224.99295 161.24219 221.12695 L 161.24219 194.18555 C 161.24219 190.31955 158.10819 187.18555 154.24219 187.18555 L 127.30273 187.18555 z M 181.16992 187.18555 C 177.30392 187.18555 174.16992 190.31955 174.16992 194.18555 L 174.16992 221.12695 C 174.16992 224.99295 177.30392 228.12695 181.16992 228.12695 L 208.11133 228.12695 C 211.97733 228.12695 215.11133 224.99295 215.11133 221.12695 L 215.11133 194.18555 C 215.11133 190.31955 211.97733 187.18555 208.11133 187.18555 L 181.16992 187.18555 z M 235.03906 187.18555 C 231.17306 187.18555 228.03906 190.31955 228.03906 194.18555 L 228.03906 221.12695 C 228.03906 224.99295 231.17306 228.12695 235.03906 228.12695 L 261.98047 228.12695 C 265.84647 228.12695 268.98047 224.99295 268.98047 221.12695 L 268.98047 194.18555 C 268.98047 190.31955 265.84647 187.18555 261.98047 187.18555 L 235.03906 187.18555 z M 288.91016 187.18555 C 285.04416 187.18555 281.91016 190.31955 281.91016 194.18555 L 281.91016 221.12695 C 281.91016 224.99295 285.04416 228.12695 288.91016 228.12695 L 315.84766 228.12695 C 319.71366 228.12695 322.84766 224.99295 322.84766 221.12695 L 322.84766 194.18555 C 322.84866 190.31955 319.71561 187.18555 315.84961 187.18555 L 288.91016 187.18555 z M 344.32812 187.18555 C 340.46213 187.18555 337.32812 190.31955 337.32812 194.18555 L 337.32812 221.12695 C 337.32812 224.99295 340.46213 228.12695 344.32812 228.12695 L 371.26758 228.12695 C 375.13358 228.12695 378.26758 224.99295 378.26758 221.12695 L 378.26758 194.18555 C 378.26758 190.31955 375.13358 187.18555 371.26758 187.18555 L 344.32812 187.18555 z M 134.30273 201.18555 L 147.24219 201.18555 L 147.24219 214.12695 L 134.30273 214.12695 L 134.30273 201.18555 z M 188.16992 201.18555 L 201.11133 201.18555 L 201.11133 214.12695 L 188.16992 214.12695 L 188.16992 201.18555 z M 242.03906 201.18555 L 254.98047 201.18555 L 254.98047 214.12695 L 242.03906 214.12695 L 242.03906 201.18555 z M 295.91016 201.18555 L 308.84766 201.18555 L 308.84766 214.12695 L 295.91016 214.12695 L 295.91016 201.18555 z M 351.32812 201.18555 L 364.26758 201.18555 L 364.26758 214.12695 L 351.32812 214.12695 L 351.32812 201.18555 z M 46.820312 244.84375 C 42.954313 244.84375 39.820312 247.97775 39.820312 251.84375 L 39.820312 278.7832 C 39.820312 282.6492 42.954312 285.7832 46.820312 285.7832 L 73.761719 285.7832 C 77.627719 285.7832 80.761719 282.6492 80.761719 278.7832 L 80.761719 251.84375 C 80.761719 247.97775 77.627719 244.84375 73.761719 244.84375 L 46.820312 244.84375 z M 344.32812 244.84375 C 340.46213 244.84375 337.32812 247.97775 337.32812 251.84375 L 337.32812 278.7832 C 337.32812 282.6492 340.46213 285.7832 344.32812 285.7832 L 371.26758 285.7832 C 375.13358 285.7832 378.26758 282.6492 378.26758 278.7832 L 378.26758 251.84375 C 378.26758 247.97775 375.13358 244.84375 371.26758 244.84375 L 344.32812 244.84375 z M 53.820312 258.8457 L 66.761719 258.8457 L 66.761719 271.78516 L 53.820312 271.78516 L 53.820312 258.8457 z M 351.32812 258.8457 L 364.26758 258.8457 L 364.26758 271.78516 L 351.32812 271.78516 L 351.32812 258.8457 z "
     id="path1595"
     style="fill:#00a779;fill-opacity:1" /><path
     d="M 317.38672 129.52734 C 313.52072 129.52734 310.38672 132.66134 310.38672 136.52734 L 310.38672 163.4668 C 310.38672 167.3338 313.52072 170.4668 317.38672 170.4668 L 371.26758 170.4668 C 375.13358 170.4668 378.26758 167.3328 378.26758 163.4668 L 378.26758 136.52734 C 378.26758 132.66134 375.13358 129.52734 371.26758 129.52734 L 317.38672 129.52734 z M 324.38672 143.52734 L 364.26758 143.52734 L 364.26758 156.4668 L 324.38672 156.4668 L 324.38672 143.52734 z M 46.820312 187.18555 C 42.954313 187.18555 39.820312 190.31955 39.820312 194.18555 L 39.820312 221.12695 C 39.820312 224.99295 42.954313 228.12695 46.820312 228.12695 L 100.70117 228.12695 C 104.56717 228.12695 107.70117 224.99295 107.70117 221.12695 L 107.70117 194.18555 C 107.70117 190.31955 104.56717 187.18555 100.70117 187.18555 L 46.820312 187.18555 z M 53.820312 201.18555 L 93.701172 201.18555 L 93.701172 214.12695 L 53.820312 214.12695 L 53.820312 201.18555 z "
     id="path1613"
     style="fill:#ed002f;fill-opacity:1" /></svg>